<svg width="18" height="12" viewBox="0 0 18 12" fill="none" xmlns="http://www.w3.org/2000/svg">
<path d="M5.27881 0.722656C5.79873 0.722656 6.27139 0.765625 6.70107 0.860156C7.12647 0.95039 7.4917 1.10078 7.80107 1.31133C8.10615 1.51758 8.34248 1.79688 8.51006 2.14062C8.67764 2.48438 8.75928 2.91406 8.75928 3.42109C8.75928 3.97109 8.63467 4.42656 8.38545 4.79609C8.13623 5.16133 7.7667 5.46211 7.27256 5.69414C7.94287 5.8875 8.44131 6.22695 8.76787 6.7082C9.09873 7.19375 9.26201 7.77383 9.26201 8.45703C9.26201 9.01133 9.15459 9.48398 8.94404 9.88359C8.7292 10.2875 8.44131 10.6184 8.08037 10.8719C7.71943 11.1254 7.30693 11.3145 6.84287 11.4391C6.38311 11.5594 5.90615 11.6238 5.42061 11.6238H0.144043V0.722656H5.27881ZM4.96943 5.12266C5.39482 5.12266 5.74717 5.02383 6.02646 4.81758C6.30146 4.61562 6.43467 4.28477 6.43467 3.825C6.43467 3.57148 6.3917 3.36094 6.30146 3.19766C6.20693 3.03438 6.08662 2.90977 5.93193 2.81953C5.77725 2.725 5.60537 2.66484 5.40342 2.62617C5.20576 2.5875 4.99951 2.57031 4.78467 2.57031H2.5417V5.11836H4.96943V5.12266ZM5.10264 9.76328C5.33896 9.76328 5.5624 9.7418 5.77725 9.69453C5.99209 9.64727 6.18115 9.57422 6.34443 9.4625C6.50342 9.35508 6.63662 9.21328 6.73545 9.02851C6.83428 8.84375 6.87725 8.60742 6.87725 8.32383C6.87725 7.76094 6.71826 7.36562 6.40459 7.1207C6.09092 6.88008 5.66982 6.76406 5.1542 6.76406H2.546V9.76328H5.10264Z" fill="white"/>
<path d="M12.6867 9.7248C13.0132 10.0428 13.4816 10.2018 14.0875 10.2018C14.5257 10.2018 14.9039 10.09 15.2175 9.8709C15.5312 9.65176 15.7246 9.41543 15.7976 9.17051H17.7054C17.4003 10.1201 16.932 10.799 16.3003 11.2072C15.673 11.6154 14.9082 11.8217 14.0144 11.8217C13.3914 11.8217 12.8328 11.7229 12.33 11.5209C11.8273 11.3189 11.4105 11.0396 11.0582 10.6744C10.7144 10.3049 10.448 9.8709 10.2589 9.35957C10.0699 8.85254 9.97534 8.28965 9.97534 7.67949C9.97534 7.09082 10.0742 6.53652 10.2675 6.02949C10.4652 5.51816 10.7359 5.07559 11.0925 4.70605C11.4492 4.33223 11.8746 4.04004 12.373 3.8252C12.8671 3.61035 13.4128 3.50293 14.0187 3.50293C14.6847 3.50293 15.2691 3.63183 15.7718 3.89394C16.2703 4.15176 16.6785 4.4998 17.0007 4.93809C17.323 5.37637 17.5507 5.8748 17.6925 6.4334C17.8343 6.99199 17.8859 7.57637 17.8429 8.19082H12.1496C12.1496 8.81816 12.3601 9.41113 12.6867 9.7248ZM15.1746 5.58262C14.9167 5.29902 14.4828 5.14434 13.95 5.14434C13.6019 5.14434 13.3183 5.20449 13.0863 5.32051C12.8628 5.43652 12.6781 5.58262 12.5363 5.75449C12.3945 5.93066 12.3 6.11543 12.2441 6.30879C12.1882 6.50215 12.1539 6.67402 12.1453 6.82871H15.673C15.6257 6.27871 15.4367 5.87051 15.1746 5.58262Z" fill="white"/>
<path d="M16.1242 1.45312H11.707V2.52734H16.1242V1.45312Z" fill="white"/>
</svg>
