<svg width="115" height="16" viewBox="0 0 115 16" fill="none" xmlns="http://www.w3.org/2000/svg">
<path d="M3.94025 12.1055H9.50071V15.6419H0V0.263672H3.94025V12.1055Z" fill="#252525"/>
<path d="M20.4503 10.4579V0.263672H24.1956V10.5237C24.1956 13.9066 21.2796 15.8613 18.1303 15.8613C14.981 15.8613 12.0522 13.9066 12.0522 10.5237V0.263672H15.7957V10.4579C15.7957 11.7105 17.0003 12.3249 18.1394 12.3249C19.2785 12.3249 20.4503 11.7105 20.4503 10.4579Z" fill="#252525"/>
<path d="M26.4938 3.77818V0.263672H37.8808V3.77818H34.1355V15.6419H30.2609V3.77818H26.4938Z" fill="#252525"/>
<path d="M47.8225 11.1164C47.8225 10.0412 46.5467 9.79796 45.0194 9.71019C41.6897 9.46882 39.5009 8.32596 39.4572 4.987C39.3259 -1.64703 51.2378 -1.64703 51.1503 4.987H47.427C47.427 2.94449 43.3099 3.12004 43.1787 4.94312C43.0912 6.10791 44.2303 6.34928 45.6099 6.50288C48.6535 6.83202 51.6242 7.29465 51.6242 11.1383C51.6242 17.5986 39.1437 17.7083 39.2312 10.9408H43.0347C43.0347 12.8955 47.8225 12.9175 47.8225 11.1164Z" fill="#252525"/>
<path d="M64.0683 3.77818H58.3985V5.95417H63.609V9.44673H58.3985V12.1493H64.2669V15.6419H54.5001V0.263672H64.0683V3.77818Z" fill="#252525"/>
<path d="M71.6881 8.0846V15.6421H67.6385V0.197998H69.0619L76.813 7.79934V0.263824H80.8225V15.664H79.421L71.6881 8.0846Z" fill="#252525"/>
<path d="M84.7391 15.6419V0.263672H88.725V6.08583H89.0093C92.9295 6.08583 92.7308 3.14183 92.7308 0.263672H96.7604C96.7604 3.40515 96.8478 6.29793 93.8043 8.25998L97.965 15.0257V15.6401H93.6074L90.2376 9.68261C89.7374 9.75488 89.232 9.78424 88.7268 9.77038V15.6364L84.7391 15.6419Z" fill="#252525"/>
<path d="M99.2791 7.97483C99.2791 -2.65828 115 -2.65828 115 7.97483C115 18.6079 99.2791 18.6299 99.2791 7.97483ZM110.994 7.97483C110.994 2.43793 103.309 2.43793 103.309 7.97483C103.309 13.5556 110.994 13.5556 110.994 7.97483Z" fill="#252525"/>
</svg>
