<svg width="67" height="43" viewBox="0 0 67 43" fill="none" xmlns="http://www.w3.org/2000/svg">
<path d="M2.62361 38.9094C2.67507 39.1991 2.77822 39.4403 2.93304 39.633C3.08696 39.8206 3.27477 39.9629 3.49648 40.0599C3.7131 40.1577 3.95181 40.2176 4.2126 40.2394C4.47249 40.2561 4.73205 40.2415 4.99127 40.1955C5.2505 40.1494 5.49922 40.0738 5.73744 39.9685C5.97476 39.8582 6.1808 39.7194 6.35556 39.552C6.52523 39.3856 6.65001 39.1877 6.7299 38.9586C6.80888 38.7243 6.82264 38.4624 6.77118 38.1726C6.71972 37.8829 6.61703 37.6442 6.46311 37.4566C6.30828 37.2639 6.12256 37.1186 5.90594 37.0208C5.68423 36.9238 5.44344 36.867 5.18355 36.8502C4.92275 36.8284 4.66274 36.8405 4.40352 36.8865C4.1443 36.9326 3.89602 37.0108 3.6587 37.1211C3.42048 37.2263 3.21653 37.3622 3.04686 37.5286C2.8721 37.696 2.74523 37.8968 2.66625 38.131C2.58636 38.3602 2.57215 38.6196 2.62361 38.9094ZM1.84594 39.0475C1.77371 38.6409 1.7854 38.2639 1.88101 37.9166C1.97571 37.5642 2.13281 37.2532 2.35231 36.9835C2.5718 36.7138 2.84399 36.4898 3.16885 36.3115C3.49281 36.1281 3.84794 36.0021 4.23423 35.9335C4.62561 35.864 5.00495 35.8595 5.37225 35.9201C5.73864 35.9756 6.07132 36.0922 6.37026 36.2698C6.66921 36.4474 6.92382 36.6853 7.13409 36.9835C7.33837 37.2775 7.47662 37.6279 7.54885 38.0345C7.62108 38.4411 7.61238 38.8202 7.52276 39.1717C7.42716 39.519 7.26961 39.8275 7.05011 40.0971C6.83061 40.3668 6.55888 40.5934 6.23492 40.7768C5.91005 40.955 5.55193 41.079 5.16056 41.1485C4.77426 41.2171 4.39792 41.2236 4.03152 41.1681C3.66422 41.1075 3.3311 40.9884 3.03215 40.8108C2.7332 40.6333 2.47905 40.3979 2.26968 40.1048C2.05942 39.8065 1.91817 39.4541 1.84594 39.0475Z" fill="#252525"/>
<path d="M1.4693 30.3627L2.19068 25.9455L3.01605 26.0803L2.73274 27.8151L7.36398 28.5714L7.20797 29.5267L2.57673 28.7704L2.29467 30.4975L1.4693 30.3627Z" fill="#252525"/>
<path d="M3.98906 20.5335L4.43283 19.6733L6.66942 20.8271L5.56178 17.4849L6.1085 16.4251L7.05802 19.3982L11.0931 18.8222L10.5393 19.8958L7.36186 20.2955L7.6948 21.3561L9.34643 22.2081L8.90267 23.0683L3.98906 20.5335Z" fill="#252525"/>
<path d="M9.53144 11.9591L11.2653 10.2434C11.5441 9.96746 11.8116 9.78269 12.0676 9.68913C12.3236 9.59556 12.5593 9.56212 12.7745 9.5888C12.9897 9.61549 13.1847 9.68404 13.3593 9.79447C13.5376 9.90127 13.6867 10.0152 13.8065 10.1363C13.9263 10.2574 14.0387 10.4077 14.1436 10.5871C14.2486 10.7592 14.3133 10.953 14.3377 11.1685C14.3621 11.384 14.3262 11.6193 14.2299 11.8743C14.1301 12.1257 13.9407 12.3893 13.6618 12.6653L12.616 13.7001L14.1084 15.2083L13.4204 15.8891L9.53144 11.9591ZM12.0604 13.1387L13.0677 12.142C13.1448 12.0657 13.2128 11.9766 13.2717 11.8747C13.3307 11.7728 13.3695 11.6654 13.3884 11.5523C13.4073 11.4319 13.397 11.3114 13.3574 11.1907C13.318 11.0628 13.2365 10.9364 13.113 10.8116C12.9859 10.6832 12.8623 10.5949 12.7421 10.5469C12.6219 10.4988 12.507 10.4817 12.3974 10.4958C12.2842 10.5061 12.1781 10.5421 12.0792 10.6036C11.9804 10.6651 11.885 10.7413 11.7933 10.8321L10.775 11.8397L12.0604 13.1387Z" fill="#252525"/>
<path d="M19.9864 9.59253L21.288 8.99426C21.4053 8.94036 21.5101 8.87797 21.6025 8.80709C21.6949 8.7362 21.767 8.65195 21.8187 8.55432C21.8683 8.452 21.8917 8.33612 21.889 8.20667C21.8864 8.07723 21.8473 7.93042 21.7718 7.76625C21.6985 7.60677 21.61 7.48837 21.5063 7.41104C21.4051 7.32687 21.296 7.27478 21.1788 7.25476C21.0642 7.2279 20.9488 7.22411 20.8327 7.2434C20.7166 7.26269 20.6092 7.29497 20.5107 7.34024L19.2232 7.93204L19.9864 9.59253ZM17.1277 5.69075L18.0072 5.28652L18.8933 7.21437L20.2301 6.59994C20.5866 6.43609 20.9012 6.35402 21.1737 6.35373C21.4442 6.34875 21.6759 6.39562 21.869 6.49436C22.0621 6.5931 22.2218 6.72423 22.3481 6.88777C22.477 7.04445 22.577 7.20019 22.6481 7.35498C22.7192 7.50977 22.7734 7.68941 22.8106 7.89391C22.8524 8.09625 22.848 8.30284 22.7972 8.51368C22.7463 8.72453 22.6321 8.93329 22.4544 9.13997C22.2766 9.34664 22.0095 9.53191 21.653 9.69576L19.4367 10.7144L17.1277 5.69075ZM21.8207 3.53376L22.7002 3.12953L25.0092 8.1532L24.1297 8.55743L21.8207 3.53376Z" fill="#252525"/>
<path d="M28.1555 1.84911L32.6164 1.48471L32.6845 2.31824L30.9326 2.46135L31.3146 7.13836L30.3499 7.21717L29.9678 2.54016L28.2236 2.68264L28.1555 1.84911Z" fill="#252525"/>
<path d="M19.7655 31.8251C19.9101 31.8303 20.0546 31.82 20.1992 31.7942C20.3437 31.7684 20.4728 31.7245 20.5863 31.6625C20.6999 31.5954 20.7903 31.5051 20.8574 31.3915C20.9296 31.2779 20.9658 31.1385 20.9658 30.9734C20.9658 30.741 20.8858 30.5552 20.7257 30.4158C20.5709 30.2764 20.3695 30.2067 20.1217 30.2067C19.9669 30.2067 19.8326 30.2377 19.7191 30.2997C19.6055 30.3616 19.51 30.4468 19.4326 30.5552C19.3603 30.6584 19.3061 30.7772 19.2699 30.9114C19.2338 31.0405 19.2183 31.1747 19.2235 31.3141H18.3407C18.351 31.0508 18.4001 30.8082 18.4878 30.5862C18.5756 30.359 18.6943 30.1629 18.844 29.9977C18.9989 29.8325 19.1848 29.7034 19.4016 29.6105C19.6184 29.5176 19.8636 29.4711 20.1372 29.4711C20.3489 29.4711 20.5554 29.5021 20.7567 29.564C20.9632 29.626 21.1465 29.7163 21.3065 29.835C21.4717 29.9538 21.6033 30.1061 21.7014 30.2919C21.7995 30.4726 21.8485 30.6817 21.8485 30.9191C21.8485 31.1928 21.7866 31.4328 21.6627 31.6393C21.5388 31.8406 21.3452 31.9878 21.0819 32.0807V32.0962C21.3917 32.1581 21.6317 32.313 21.8021 32.5608C21.9776 32.8034 22.0654 33.1002 22.0654 33.4513C22.0654 33.7094 22.0137 33.9417 21.9105 34.1482C21.8072 34.3495 21.6679 34.5225 21.4923 34.667C21.3168 34.8064 21.1129 34.9148 20.8806 34.9923C20.6483 35.0697 20.4031 35.1084 20.145 35.1084C19.8301 35.1084 19.5539 35.0645 19.3164 34.9768C19.0841 34.8838 18.8879 34.7548 18.7279 34.5896C18.573 34.4244 18.4543 34.2256 18.3717 33.9933C18.2891 33.761 18.2452 33.5029 18.2401 33.219H19.1228C19.1125 33.5494 19.1925 33.8256 19.3629 34.0475C19.5384 34.2644 19.7991 34.3728 20.145 34.3728C20.4392 34.3728 20.6844 34.2902 20.8806 34.125C21.0819 33.9546 21.1826 33.7146 21.1826 33.4048C21.1826 33.1932 21.1413 33.0254 21.0587 32.9015C20.9761 32.7776 20.8677 32.6847 20.7335 32.6227C20.5993 32.5556 20.447 32.5143 20.2766 32.4988C20.1114 32.4833 19.9411 32.4782 19.7655 32.4833V31.8251ZM24.4555 29.4711C24.8427 29.4711 25.1576 29.5614 25.4002 29.7421C25.648 29.9176 25.839 30.1448 25.9733 30.4236C26.1126 30.6972 26.2056 30.9992 26.252 31.3296C26.3037 31.6599 26.3295 31.98 26.3295 32.2898C26.3295 32.5995 26.3037 32.9196 26.252 33.25C26.2056 33.5803 26.1126 33.8849 25.9733 34.1637C25.839 34.4373 25.648 34.6644 25.4002 34.8451C25.1576 35.0206 24.8427 35.1084 24.4555 35.1084C24.0683 35.1084 23.7509 35.0206 23.5031 34.8451C23.2604 34.6644 23.0694 34.4373 22.93 34.1637C22.7958 33.8849 22.7029 33.5803 22.6513 33.25C22.6048 32.9196 22.5816 32.5995 22.5816 32.2898C22.5816 31.98 22.6048 31.6599 22.6513 31.3296C22.7029 30.9992 22.7958 30.6972 22.93 30.4236C23.0694 30.1448 23.2604 29.9176 23.5031 29.7421C23.7509 29.5614 24.0683 29.4711 24.4555 29.4711ZM24.4555 34.3728C24.6465 34.3728 24.8066 34.3186 24.9356 34.2102C25.0647 34.0966 25.1653 33.9469 25.2376 33.761C25.3151 33.57 25.3693 33.348 25.4002 33.0951C25.4312 32.8421 25.4467 32.5737 25.4467 32.2898C25.4467 32.0058 25.4312 31.74 25.4002 31.4922C25.3693 31.2392 25.3151 31.0172 25.2376 30.8262C25.1653 30.6352 25.0647 30.4855 24.9356 30.3771C24.8066 30.2635 24.6465 30.2067 24.4555 30.2067C24.2594 30.2067 24.0967 30.2635 23.9677 30.3771C23.8438 30.4855 23.7431 30.6352 23.6657 30.8262C23.5934 31.0172 23.5418 31.2392 23.5108 31.4922C23.4798 31.74 23.4643 32.0058 23.4643 32.2898C23.4643 32.5737 23.4798 32.8421 23.5108 33.0951C23.5418 33.348 23.5934 33.57 23.6657 33.761C23.7431 33.9469 23.8438 34.0966 23.9677 34.2102C24.0967 34.3186 24.2594 34.3728 24.4555 34.3728ZM29.2487 30.9966H30.6967L31.4401 33.854H31.4556L32.168 30.9966H33.6083V35H32.7178V31.9878H32.71L31.8892 35H30.9677L30.1469 31.9878H30.1314V35H29.2487V30.9966ZM37.3132 32.646C37.3029 32.5066 37.2719 32.3724 37.2203 32.2433C37.1738 32.1142 37.1067 32.0032 37.019 31.9103C36.9364 31.8122 36.8331 31.7348 36.7092 31.678C36.5905 31.6161 36.4563 31.5851 36.3065 31.5851C36.1517 31.5851 36.0097 31.6135 35.8807 31.6703C35.7568 31.7219 35.6483 31.7967 35.5554 31.8948C35.4677 31.9878 35.3954 32.0987 35.3386 32.2278C35.287 32.3569 35.2586 32.4963 35.2534 32.646H37.3132ZM35.2534 33.2267C35.2534 33.3816 35.2741 33.5313 35.3154 33.6759C35.3618 33.8204 35.4289 33.9469 35.5167 34.0553C35.6045 34.1637 35.7155 34.2515 35.8497 34.3186C35.9839 34.3805 36.1439 34.4115 36.3298 34.4115C36.5879 34.4115 36.7944 34.3573 36.9493 34.2489C37.1093 34.1353 37.228 33.9675 37.3055 33.7455H38.1418C38.0953 33.9624 38.0153 34.156 37.9017 34.3263C37.7881 34.4967 37.6513 34.6412 37.4913 34.7599C37.3313 34.8735 37.1506 34.9587 36.9493 35.0155C36.7531 35.0774 36.5466 35.1084 36.3298 35.1084C36.0149 35.1084 35.7361 35.0568 35.4935 34.9535C35.2508 34.8503 35.0443 34.7057 34.874 34.5199C34.7088 34.3341 34.5823 34.1121 34.4946 33.854C34.412 33.5958 34.3707 33.3119 34.3707 33.0022C34.3707 32.7182 34.4145 32.4498 34.5023 32.1968C34.5952 31.9387 34.7243 31.7142 34.8895 31.5231C35.0598 31.327 35.2638 31.1721 35.5012 31.0585C35.7387 30.945 36.0071 30.8882 36.3065 30.8882C36.6215 30.8882 36.9028 30.9553 37.1506 31.0895C37.4036 31.2186 37.6126 31.3915 37.7778 31.6083C37.943 31.8251 38.0618 32.0755 38.134 32.3594C38.2115 32.6382 38.2321 32.9273 38.196 33.2267H35.2534ZM41.5696 32.3362C41.5334 32.0884 41.4328 31.9026 41.2676 31.7787C41.1075 31.6496 40.9036 31.5851 40.6558 31.5851C40.5423 31.5851 40.4209 31.6057 40.2919 31.647C40.1628 31.6832 40.0441 31.7555 39.9357 31.8639C39.8273 31.9671 39.7369 32.1142 39.6646 32.3052C39.5924 32.4911 39.5562 32.7363 39.5562 33.0409C39.5562 33.2061 39.5743 33.3713 39.6104 33.5365C39.6517 33.7017 39.7137 33.8488 39.7963 33.9779C39.8841 34.1069 39.995 34.2127 40.1293 34.2953C40.2635 34.3728 40.4261 34.4115 40.6171 34.4115C40.8752 34.4115 41.0869 34.3315 41.2521 34.1714C41.4224 34.0114 41.5283 33.7868 41.5696 33.4978H42.4523C42.3697 34.0191 42.171 34.4192 41.8561 34.698C41.5463 34.9716 41.1333 35.1084 40.6171 35.1084C40.3022 35.1084 40.0234 35.0568 39.7808 34.9535C39.5433 34.8451 39.342 34.7006 39.1768 34.5199C39.0116 34.3341 38.8851 34.1147 38.7974 33.8617C38.7148 33.6087 38.6735 33.3351 38.6735 33.0409C38.6735 32.7415 38.7148 32.4601 38.7974 32.1968C38.88 31.9336 39.0039 31.7064 39.1691 31.5154C39.3343 31.3192 39.5382 31.1669 39.7808 31.0585C40.0286 30.945 40.3177 30.8882 40.6481 30.8882C40.8804 30.8882 41.0998 30.9191 41.3063 30.9811C41.5179 31.0379 41.7038 31.1256 41.8638 31.2444C42.029 31.3631 42.1632 31.5128 42.2665 31.6935C42.3697 31.8742 42.4317 32.0884 42.4523 32.3362H41.5696ZM46.3525 31.6548H45.0283V35H44.1456V31.6548H42.7672V30.9966H46.3525V31.6548Z" fill="#252525"/>
<path d="M44.741 3.70059L45.6108 4.12519L44.6461 6.10148L46.9077 7.20545L47.8724 5.22917L48.7422 5.65377L46.3169 10.6223L45.4471 10.1977L46.5408 7.95699L44.2792 6.85302L43.1855 9.09374L42.3156 8.66914L44.741 3.70059Z" fill="#252525"/>
<path d="M55.1072 10.5212L55.8307 11.2541L53.3924 16.6539L52.6634 15.9155L53.3404 14.5181L51.7898 12.9476L50.3839 13.6066L49.6821 12.8958L55.1072 10.5212ZM52.4983 12.6181L53.6843 13.8194L54.7939 11.5596L54.7776 11.543L52.4983 12.6181Z" fill="#252525"/>
<path d="M60.4995 17.3987L62.2101 20.8116L61.4624 21.1863L60.1855 18.6387L59.0364 19.2147L59.6956 20.53C59.8714 20.8808 59.9641 21.1924 59.9736 21.4648C59.9877 21.7349 59.9487 21.9681 59.8565 22.1644C59.7644 22.3608 59.6387 22.5248 59.4795 22.6565C59.3273 22.7906 59.175 22.8958 59.0227 22.9721C58.8704 23.0485 58.6927 23.1087 58.4896 23.1527C58.2888 23.2014 58.0821 23.2039 57.8697 23.1603C57.6573 23.1166 57.4448 23.0094 57.2322 22.8388C57.0196 22.6682 56.8254 22.4075 56.6496 22.0567L55.5567 19.8761L60.4995 17.3987ZM56.6965 20.3875L57.3384 21.6682C57.3962 21.7836 57.4621 21.8863 57.5361 21.9762C57.6101 22.0662 57.6967 22.1354 57.796 22.1838C57.9 22.2298 58.0166 22.2493 58.1459 22.2423C58.2751 22.2352 58.4205 22.1912 58.5821 22.1103C58.739 22.0316 58.8543 21.9392 58.9281 21.8329C59.0088 21.7289 59.0572 21.618 59.0732 21.5003C59.0962 21.3848 59.0961 21.2694 59.0729 21.154C59.0497 21.0386 59.0138 20.9324 58.9652 20.8355L58.3303 19.5686L56.6965 20.3875Z" fill="#252525"/>
<path d="M63.7051 28.9177C63.6678 28.6258 63.5766 28.3799 63.4314 28.1798C63.2868 27.9849 63.1061 27.8336 62.8894 27.726C62.6778 27.6176 62.4423 27.5462 62.1829 27.5117C61.9242 27.4823 61.6642 27.4842 61.403 27.5175C61.1419 27.5509 60.8898 27.6143 60.6467 27.7078C60.4043 27.8064 60.1917 27.935 60.009 28.0936C59.8314 28.2516 59.6971 28.4431 59.6061 28.668C59.5158 28.8982 59.4892 29.1591 59.5265 29.451C59.5637 29.7429 59.6547 29.9863 59.7992 30.1812C59.9445 30.3813 60.1229 30.5355 60.3345 30.6438C60.5512 30.7514 60.7889 30.82 61.0477 30.8494C61.3071 30.8839 61.5674 30.8845 61.8285 30.8512C62.0897 30.8179 62.3415 30.7519 62.5839 30.6533C62.827 30.5598 63.0373 30.4341 63.2149 30.2761C63.3976 30.1175 63.5342 29.9231 63.6245 29.693C63.7155 29.468 63.7423 29.2096 63.7051 28.9177ZM64.4886 28.8177C64.5409 29.2274 64.5108 29.6033 64.3983 29.9455C64.2865 30.2929 64.1144 30.5959 63.882 30.8545C63.6496 31.1132 63.3668 31.3236 63.0336 31.4858C62.7011 31.6532 62.3403 31.7617 61.9511 31.8114C61.5568 31.8617 61.1777 31.8476 60.8138 31.7692C60.4505 31.6958 60.1239 31.5632 59.834 31.3712C59.5441 31.1792 59.3014 30.9291 59.1059 30.621C58.9163 30.3174 58.7953 29.9607 58.743 29.551C58.6907 29.1414 58.7179 28.7632 58.8246 28.4165C58.937 28.0743 59.1095 27.7739 59.3419 27.5152C59.5743 27.2566 59.8567 27.0436 60.1893 26.8762C60.5224 26.714 60.8862 26.6077 61.2805 26.5574C61.6697 26.5077 62.0459 26.5195 62.4091 26.5929C62.773 26.6713 63.1 26.8066 63.3899 26.9985C63.6798 27.1905 63.9222 27.438 64.117 27.741C64.3124 28.0491 64.4363 28.408 64.4886 28.8177Z" fill="#252525"/>
<path d="M64.3304 38.0253L63.8202 40.4106C63.7382 40.7943 63.6157 41.0954 63.4528 41.3139C63.2899 41.5325 63.1111 41.6896 62.9164 41.7852C62.7218 41.8808 62.5212 41.9303 62.3146 41.9336C62.1069 41.942 61.9197 41.9283 61.7532 41.8927C61.5866 41.8571 61.4102 41.793 61.2242 41.7004C61.042 41.6139 60.8817 41.4872 60.7432 41.3203C60.6047 41.1535 60.5058 40.937 60.4466 40.6709C60.3924 40.4059 60.4064 40.0816 60.4884 39.6979L60.7962 38.2592L58.7214 37.8154L58.9238 36.8689L64.3304 38.0253ZM61.5685 38.4244L61.2721 39.8101C61.2495 39.9162 61.2414 40.0279 61.2479 40.1455C61.2545 40.263 61.2808 40.3742 61.327 40.4791C61.3772 40.5902 61.4518 40.6853 61.551 40.7646C61.6542 40.85 61.7916 40.9111 61.9632 40.9478C62.1399 40.9856 62.2917 40.9917 62.4186 40.966C62.5455 40.9404 62.6509 40.8917 62.7349 40.8199C62.8239 40.7492 62.893 40.661 62.942 40.5553C62.991 40.4497 63.029 40.3337 63.0559 40.2075L63.3556 38.8067L61.5685 38.4244Z" fill="#252525"/>
</svg>
